<?xml version="1.0" encoding="UTF-8" standalone="no"?>
<svg
   xmlns:dc="http://purl.org/dc/elements/1.1/"
   xmlns:cc="http://creativecommons.org/ns#"
   xmlns:rdf="http://www.w3.org/1999/02/22-rdf-syntax-ns#"
   xmlns:svg="http://www.w3.org/2000/svg"
   xmlns="http://www.w3.org/2000/svg"
   id="svg13393"
   version="1.1"
   viewBox="0 0 8.7312498 8.4666669"
   height="32"
   width="33">
  <defs
     id="defs13387" />
  <metadata
     id="metadata13390">
    <rdf:RDF>
      <cc:Work
         rdf:about="">
        <dc:format>image/svg+xml</dc:format>
        <dc:type
           rdf:resource="http://purl.org/dc/dcmitype/StillImage" />
        <dc:title></dc:title>
      </cc:Work>
    </rdf:RDF>
  </metadata>
  <g
     transform="translate(0,-288.53332)"
     id="layer1">
    <path
       style="color:#000000;clip-rule:nonzero;display:inline;overflow:visible;visibility:visible;opacity:1;isolation:auto;mix-blend-mode:normal;color-interpolation:sRGB;color-interpolation-filters:linearRGB;solid-color:#000000;solid-opacity:1;fill:#f2712d;fill-opacity:1;fill-rule:nonzero;stroke:none;stroke-width:0.09260417;stroke-linecap:round;stroke-linejoin:round;stroke-miterlimit:8.80000019;stroke-dasharray:0.37041669, 0.74083336;stroke-dashoffset:0;stroke-opacity:1;color-rendering:auto;image-rendering:auto;shape-rendering:auto;text-rendering:auto;enable-background:accumulate"
       d="m 2.6089379,288.53439 -0.2766002,0.67979 h 0.00159 l -0.099139,0.24477 -0.3742513,0.9243 h 0.024292 l 0.011907,0.0106 1.6174637,2.54719 h 0.012382 l 0.1982793,0.34321 v 0 h 0.4059761 v 0 l 0.1977871,-0.34321 h 0.00495 l -0.00159,-0.005 0.00159,-0.003 h -0.00159 l 0.00397,-0.0132 1.5956514,-2.51173 0.025774,-0.0238 h 0.029246 l -0.3737564,-0.9243 -0.099138,-0.24477 h 0.00159 l -0.2766002,-0.6798 -0.2969252,0.72928 h 0.00212 L 4.8646032,289.46 4.5884978,290.14297 H 4.3688972 l -0.1938178,-0.077 h -0.00106 -0.5254395 -0.00106 -0.00265 -0.00397 0.00106 l -0.1888616,0.0749 H 3.2592903 L 2.983185,289.4579 2.903874,289.26262 h 0.00212 l -0.2969227,-0.72928 z m 0.1620931,3.58792 0.3573979,3.0706 -0.7559383,0.22969 -0.00545,-0.005 -0.3445086,1.58238 1.2422201,-0.57765 0.00495,0.005 0.019343,-0.0402 1.3408662,-0.12014 0.00159,-0.0106 1.628866,-0.41095 -1.4276125,-0.2408 1.4484298,0.24239 h 0.00212 0.00106 0.00212 -0.00159 l 0.3028712,-0.51812 h 0.018364 l -0.1536676,-0.70573 -0.9993293,0.55437 0.9933834,-0.5549 0.022307,-0.005 h -0.00397 0.00397 -0.00743 l -0.3152632,-0.26222 -0.3281527,-0.28129 -0.00593,0.003 -0.8431849,-0.70203 0.1447448,-1.24316 -1.17084,1.66258 -1.1713348,-1.66258 z"
       id="path29126-3" />
  </g>
</svg>
